<?xml version="1.0" encoding="UTF-8" standalone="no"?>
<!DOCTYPE svg PUBLIC "-//W3C//DTD SVG 1.1//EN" "http://www.w3.org/Graphics/SVG/1.1/DTD/svg11.dtd">
<svg width="100%" height="100%" viewBox="0 0 6013 1709" version="1.1" xmlns="http://www.w3.org/2000/svg" xmlns:xlink="http://www.w3.org/1999/xlink" xml:space="preserve" xmlns:serif="http://www.serif.com/" style="fill-rule:evenodd;clip-rule:evenodd;stroke-miterlimit:2;">
    <g id="Artboard1" transform="matrix(1,0,0,0.705843,0,0)">
        <rect x="0" y="0" width="6012.44" height="2420" style="fill:none;"/>
        <clipPath id="_clip1">
            <rect x="0" y="0" width="6012.44" height="2420"/>
        </clipPath>
        <g clip-path="url(#_clip1)">
            <g transform="matrix(4.16667,0,0,5.90311,0,0)">
                <path d="M421.314,148.097L444.064,148.097L444.064,306.921L421.314,306.921L421.314,148.097ZM432.686,69.238C441.869,69.238 449.939,76.21 449.939,86.114C449.939,95.276 442.596,102.985 432.686,102.985C422.791,102.985 415.82,95.276 415.82,86.114C415.82,76.21 423.891,69.238 432.686,69.238Z" style="fill:rgb(35,31,32);fill-rule:nonzero;"/>
                <path d="M381.99,182.319C381.99,89.978 307.143,15.117 214.799,15.117C122.458,15.117 47.606,89.978 47.606,182.319C47.606,274.656 122.458,349.523 214.799,349.523C307.143,349.523 381.99,274.656 381.99,182.319Z" style="fill:rgb(35,31,32);fill-rule:nonzero;"/>
                <path d="M381.99,182.319C381.99,89.978 307.143,15.117 214.799,15.117C122.458,15.117 47.606,89.978 47.606,182.319C47.606,274.656 122.458,349.523 214.799,349.523C307.143,349.523 381.99,274.656 381.99,182.319Z" style="fill:none;stroke:rgb(35,31,32);stroke-width:29.93px;"/>
                <path d="M218.345,15.855C225.021,15.855 231.598,16.292 238.072,17.051C263.307,22.793 248.552,55.953 272.061,72.069C297.346,89.409 320.643,96.364 317.049,113.392C314.604,125.009 290.002,148.139 282.816,155.63C267.98,171.067 251.178,178.423 236.092,179.747C175.818,185.018 136.152,202.032 137.554,242.006C138.736,275.982 218.613,329.229 218.613,329.229C218.613,329.229 193.053,348.228 184.966,346.908C108.616,331.433 51.141,263.944 51.141,183.045C51.141,90.708 125.999,15.855 218.345,15.855Z" style="fill:white;fill-rule:nonzero;"/>
                <path d="M292.553,92.333C279.549,87.885 275.705,100.036 281.783,102.462C287.867,104.902 294.096,108.237 294.096,113.107C294.096,117.961 305.563,96.784 292.553,92.333Z" style="fill:white;fill-rule:nonzero;"/>
                <path d="M292.553,92.333C279.549,87.885 275.705,100.036 281.783,102.462C287.867,104.902 294.096,108.237 294.096,113.107C294.096,117.961 305.563,96.784 292.553,92.333Z" style="fill:none;stroke:white;stroke-width:2.72px;"/>
                <path d="M214.799,349.523C208.122,349.523 201.542,349.074 195.073,348.312C169.827,342.582 184.593,309.412 161.087,293.296C135.795,275.957 127.093,272.628 130.679,255.604C133.136,243.974 143.135,217.225 150.323,209.733C165.156,194.3 181.953,186.94 197.049,185.625C257.325,180.345 310.689,162.836 318.986,123.711C335.939,43.802 235.81,13.44 235.81,13.44C235.81,13.44 240.09,17.135 248.18,18.467C324.525,33.933 381.99,101.407 381.99,182.319C381.99,274.656 307.143,349.523 214.799,349.523Z" style="fill:rgb(35,31,32);fill-rule:nonzero;"/>
                <path d="M214.799,349.523C208.122,349.523 201.542,349.074 195.073,348.312C169.827,342.582 184.593,309.412 161.087,293.296C135.795,275.957 127.093,272.628 130.679,255.604C133.136,243.974 143.135,217.225 150.323,209.733C165.156,194.3 181.953,186.94 197.049,185.625C257.325,180.345 310.689,162.836 318.986,123.711C335.939,43.802 235.81,13.44 235.81,13.44C235.81,13.44 240.09,17.135 248.18,18.467C324.525,33.933 381.99,101.407 381.99,182.319C381.99,274.656 307.143,349.523 214.799,349.523Z" style="fill:none;stroke:rgb(35,31,32);stroke-width:2.72px;"/>
                <path d="M286.309,324.903C286.309,324.903 271.721,397.849 243.751,407.58C215.796,417.308 243.751,356.517 214.574,334.634" style="fill:rgb(35,31,32);fill-rule:nonzero;"/>
                <path d="M286.309,324.903C286.309,324.903 271.721,397.849 243.751,407.58C215.796,417.308 243.751,356.517 214.574,334.634" style="fill:none;stroke:rgb(35,31,32);stroke-width:2.72px;"/>
                <path d="M140.593,273.031C153.6,277.491 157.429,265.328 151.357,262.903C145.274,260.461 139.055,257.128 139.055,252.262C139.055,247.403 127.582,268.58 140.593,273.031Z" style="fill:white;fill-rule:nonzero;"/>
                <path d="M140.593,273.031C153.6,277.491 157.429,265.328 151.357,262.903C145.274,260.461 139.055,257.128 139.055,252.262C139.055,247.403 127.582,268.58 140.593,273.031Z" style="fill:none;stroke:white;stroke-width:2.72px;"/>
                <path d="M166.197,159.532C207.123,177.947 210.561,91.36 209.268,80.399C207.988,69.437 202.465,69.178 202.465,69.178C204.073,86.842 201.157,162.232 168.149,150.418C115.427,131.547 138.988,66.863 148.01,53.962C157.046,41.069 143.277,52.057 143.277,52.057C127.353,74.936 101.098,130.24 166.197,159.532Z" style="fill:rgb(35,31,32);fill-rule:nonzero;"/>
                <path d="M309.289,101.133C299.557,91.418 285.797,101.049 290.406,105.693C295.023,110.343 301.48,117.415 302.131,124.572C302.568,129.406 322.307,114.153 309.289,101.133Z" style="fill:rgb(35,31,32);fill-rule:nonzero;"/>
                <path d="M309.289,101.133C299.557,91.418 285.797,101.049 290.406,105.693C295.023,110.343 301.48,117.415 302.131,124.572C302.568,129.406 322.307,114.153 309.289,101.133Z" style="fill:none;stroke:rgb(35,31,32);stroke-width:2.72px;"/>
                <path d="M158.479,272.808C158.479,272.808 169.65,275.595 173.186,276.498C176.725,277.407 207.457,284.496 222.141,283.292L222.234,282.67C210.601,282.67 209.904,282.524 173.339,275.168C173.339,275.168 159.536,271.114 157.406,270.976C155.278,270.848 158.479,272.808 158.479,272.808Z" style="fill:white;fill-rule:nonzero;"/>
                <path d="M155.581,275.463C157.945,276.35 168.919,280.37 172.843,281.888C176.772,283.398 210.996,295.852 228.056,297.804L228.25,297.274C214.885,294.906 214.103,294.635 173.229,280.757L155.573,273.853C155.573,273.853 153.216,274.566 155.581,275.463Z" style="fill:white;fill-rule:nonzero;"/>
                <path d="M224.136,87.028C224.136,83.425 227.059,80.508 230.658,80.508C234.25,80.508 237.177,83.425 237.177,87.028C237.177,90.627 234.25,93.539 230.658,93.539C227.059,93.539 224.136,90.627 224.136,87.028Z" style="fill:rgb(35,31,32);fill-rule:nonzero;"/>
                <path d="M209.01,323.121C209.01,319.962 211.575,317.407 214.725,317.407C217.875,317.407 220.432,319.962 220.432,323.121C220.432,326.273 217.875,328.83 214.725,328.83C211.575,328.83 209.01,326.273 209.01,323.121Z" style="fill:white;fill-rule:nonzero;"/>
                <g transform="matrix(1.46977,0,0,1.46977,632.677,-538.218)">
                    <path d="M23.934,487.793L0,419.742L9.726,419.742L29.179,478.736L29.371,478.736L49.01,419.742L58.452,419.742L34.233,487.793L23.934,487.793Z" style="fill:rgb(35,31,32);fill-rule:nonzero;"/>
                    <path d="M101.597,452.961C100.865,451.248 99.877,449.779 98.633,448.543C97.397,447.312 95.93,446.326 94.24,445.597C92.555,444.871 90.696,444.509 88.658,444.509C86.554,444.509 84.662,444.871 82.976,445.597C81.289,446.326 79.84,447.326 78.629,448.591C77.419,449.859 76.463,451.332 75.766,453.007C75.064,454.683 74.647,456.472 74.522,458.371L102.889,458.371C102.755,456.472 102.324,454.668 101.597,452.961ZM103.529,484.648C99.844,487.449 95.202,488.851 89.604,488.851C85.661,488.851 82.245,488.216 79.351,486.943C76.457,485.67 74.026,483.89 72.055,481.599C70.084,479.308 68.603,476.57 67.617,473.39C66.631,470.209 66.076,466.74 65.95,462.986C65.95,459.23 66.522,455.8 67.666,452.675C68.811,449.56 70.418,446.857 72.484,444.568C74.552,442.275 77,440.492 79.831,439.222C82.661,437.945 85.761,437.312 89.133,437.312C93.521,437.312 97.166,438.216 100.058,440.033C102.954,441.849 105.274,444.154 107.022,446.955C108.775,449.752 109.979,452.81 110.646,456.115C111.315,459.429 111.585,462.578 111.459,465.568L74.522,465.568C74.456,467.728 74.714,469.775 75.283,471.712C75.858,473.652 76.778,475.365 78.055,476.855C79.324,478.347 80.945,479.537 82.919,480.429C84.891,481.318 87.216,481.759 89.888,481.759C93.322,481.759 96.135,480.968 98.33,479.378C100.526,477.789 101.975,475.371 102.676,472.13L110.686,472.13C109.601,477.673 107.219,481.845 103.529,484.648Z" style="fill:rgb(35,31,32);fill-rule:nonzero;"/>
                    <path d="M150.407,438.474L150.407,445.671L140.67,445.671L140.67,476.216C140.67,477.171 140.749,477.931 140.908,478.503C141.061,479.076 141.364,479.519 141.801,479.837C142.244,480.152 142.859,480.359 143.647,480.453C144.433,480.55 145.458,480.595 146.723,480.595L150.407,480.595L150.407,487.793L144.235,487.793C142.146,487.793 140.358,487.65 138.872,487.365C137.383,487.08 136.185,486.556 135.267,485.791C134.347,485.029 133.671,483.949 133.228,482.554C132.785,481.156 132.561,479.314 132.561,477.025L132.521,445.671L124.126,445.671L124.126,438.474L132.521,438.474L132.521,423.765L140.67,423.765L140.67,438.474L150.407,438.474Z" style="fill:rgb(35,31,32);fill-rule:nonzero;"/>
                    <path d="M201.921,452.961C201.193,451.248 200.2,449.779 198.964,448.543C197.72,447.312 196.259,446.326 194.571,445.597C192.886,444.871 191.019,444.509 188.982,444.509C186.879,444.509 184.987,444.871 183.301,445.597C181.614,446.326 180.165,447.326 178.954,448.591C177.744,449.859 176.792,451.332 176.092,453.007C175.389,454.683 174.979,456.472 174.848,458.371L203.211,458.371C203.085,456.472 202.655,454.668 201.921,452.961ZM203.859,484.648C200.169,487.449 195.531,488.851 189.936,488.851C185.992,488.851 182.574,488.216 179.676,486.943C176.786,485.67 174.352,483.89 172.38,481.599C170.409,479.308 168.935,476.57 167.948,473.39C166.963,470.209 166.4,466.74 166.275,462.986C166.275,459.23 166.85,455.8 167.994,452.675C169.14,449.56 170.746,446.857 172.811,444.568C174.881,442.275 177.328,440.492 180.159,439.222C182.99,437.945 186.093,437.312 189.459,437.312C193.85,437.312 197.488,438.216 200.386,440.033C203.276,441.849 205.599,444.154 207.351,446.955C209.097,449.752 210.308,452.81 210.977,456.115C211.644,459.429 211.909,462.578 211.784,465.568L174.848,465.568C174.787,467.728 175.04,469.775 175.615,471.712C176.184,473.652 177.11,475.365 178.379,476.855C179.648,478.347 181.277,479.537 183.247,480.429C185.219,481.318 187.542,481.759 190.214,481.759C193.645,481.759 196.464,480.968 198.659,479.378C200.857,477.789 202.297,475.371 203,472.13L211.01,472.13C209.931,477.673 207.543,481.845 203.859,484.648Z" style="fill:rgb(35,31,32);fill-rule:nonzero;"/>
                    <path d="M237.189,438.455L237.189,448.859L237.354,448.859C239.306,444.851 241.714,441.89 244.57,439.984C247.435,438.074 251.053,437.185 255.448,437.312L255.448,445.884C252.198,445.884 249.434,446.33 247.146,447.22C244.855,448.113 243.019,449.416 241.614,451.134C240.217,452.855 239.199,454.937 238.565,457.386C237.93,459.839 237.612,462.654 237.612,465.836L237.612,487.793L229.465,487.793L229.465,438.455L237.189,438.455Z" style="fill:rgb(35,31,32);fill-rule:nonzero;"/>
                    <path d="M279.646,438.496L279.646,487.793L271.502,487.793L271.502,438.496L279.646,438.496ZM271.502,429.691L271.502,419.742L279.646,419.742L279.646,429.691L271.502,429.691Z" style="fill:rgb(35,31,32);fill-rule:nonzero;"/>
                    <path d="M309.346,438.455L309.346,446.279L309.506,446.279C312.893,440.302 318.25,437.312 325.594,437.312C328.846,437.312 331.561,437.757 333.727,438.648C335.896,439.541 337.658,440.777 338.996,442.371C340.338,443.959 341.275,445.851 341.818,448.046C342.361,450.242 342.635,452.675 342.635,455.347L342.635,487.793L334.484,487.793L334.484,454.423C334.484,451.373 333.588,448.961 331.811,447.181C330.025,445.402 327.57,444.509 324.447,444.509C321.963,444.509 319.814,444.89 317.998,445.652C316.18,446.416 314.666,447.496 313.453,448.892C312.244,450.296 311.338,451.929 310.734,453.804C310.129,455.681 309.824,457.73 309.824,459.953L309.824,487.793L301.674,487.793L301.674,438.455L309.346,438.455Z" style="fill:rgb(35,31,32);fill-rule:nonzero;"/>
                    <path d="M390.805,463.976C389.152,464.328 387.414,464.615 385.598,464.834C383.783,465.058 381.947,465.314 380.104,465.601C378.26,465.886 376.6,466.347 375.135,466.984C373.668,467.619 372.471,468.525 371.551,469.701C370.623,470.873 370.162,472.48 370.162,474.515C370.162,475.851 370.436,476.978 370.975,477.898C371.518,478.824 372.221,479.57 373.078,480.14C373.939,480.712 374.955,481.125 376.135,481.38C377.318,481.634 378.51,481.759 379.719,481.759C382.398,481.759 384.695,481.396 386.605,480.662C388.518,479.935 390.076,479.013 391.289,477.898C392.498,476.787 393.393,475.58 393.961,474.277C394.535,472.974 394.818,471.748 394.818,470.601L394.818,462.306C393.803,463.074 392.465,463.63 390.805,463.976ZM402.209,488.851C400.113,488.851 398.445,488.263 397.207,487.087C395.973,485.916 395.35,483.99 395.35,481.318C393.121,483.99 390.52,485.916 387.559,487.087C384.594,488.263 381.387,488.851 377.945,488.851C375.713,488.851 373.609,488.615 371.635,488.138C369.656,487.662 367.918,486.867 366.424,485.752C364.924,484.642 363.744,483.209 362.887,481.462C362.021,479.712 361.59,477.599 361.59,475.119C361.59,472.322 362.066,470.033 363.025,468.253C363.979,466.474 365.232,465.027 366.797,463.914C368.357,462.804 370.143,461.957 372.145,461.388C374.148,460.812 376.205,460.337 378.309,459.957C380.539,459.513 382.658,459.179 384.662,458.955C386.664,458.736 388.43,458.416 389.959,458.002C391.486,457.587 392.699,456.982 393.59,456.189C394.484,455.396 394.928,454.238 394.928,452.709C394.928,450.929 394.598,449.502 393.928,448.416C393.26,447.337 392.402,446.511 391.348,445.937C390.303,445.369 389.127,444.984 387.822,444.793C386.514,444.603 385.23,444.509 383.955,444.509C380.521,444.509 377.656,445.156 375.369,446.455C373.078,447.755 371.836,450.209 371.643,453.822L363.492,453.822C363.627,450.769 364.262,448.193 365.404,446.091C366.559,443.992 368.084,442.293 369.996,440.986C371.906,439.683 374.102,438.744 376.59,438.171C379.078,437.597 381.693,437.312 384.432,437.312C386.66,437.312 388.873,437.47 391.072,437.787C393.271,438.103 395.262,438.759 397.043,439.746C398.83,440.73 400.264,442.113 401.352,443.892C402.426,445.671 402.969,447.994 402.969,450.857L402.969,476.228C402.969,478.136 403.082,479.537 403.309,480.423C403.525,481.318 404.273,481.759 405.549,481.759C406.244,481.759 407.072,481.601 408.029,481.283L408.029,487.609C406.629,488.435 404.688,488.851 402.209,488.851Z" style="fill:rgb(35,31,32);fill-rule:nonzero;"/>
                    <path d="M432.506,438.455L432.506,448.859L432.67,448.859C434.621,444.851 437.027,441.89 439.887,439.984C442.752,438.074 446.369,437.185 450.76,437.312L450.76,445.884C447.514,445.884 444.746,446.33 442.459,447.22C440.172,448.113 438.332,449.416 436.93,451.134C435.533,452.855 434.514,454.937 433.881,457.386C433.246,459.839 432.928,462.654 432.928,465.836L432.928,487.793L424.777,487.793L424.777,438.455L432.506,438.455Z" style="fill:rgb(35,31,32);fill-rule:nonzero;"/>
                    <path d="M482.9,500.414C481.973,502.068 480.957,503.423 479.844,504.472C478.732,505.519 477.512,506.285 476.172,506.763C474.838,507.24 473.25,507.478 471.41,507.478C470.451,507.478 469.498,507.412 468.545,507.287C467.596,507.162 466.676,506.935 465.781,506.619L465.781,499.177C466.541,499.429 467.324,499.683 468.119,499.937C468.908,500.191 469.725,500.322 470.553,500.322C472.203,500.322 473.533,499.937 474.555,499.177C475.57,498.41 476.457,497.298 477.227,495.836L480.559,487.531L461.014,438.474L470.168,438.474L484.566,478.843L484.758,478.843L498.584,438.474L507.168,438.474L485.711,494.308C484.758,496.722 483.82,498.759 482.9,500.414Z" style="fill:rgb(35,31,32);fill-rule:nonzero;"/>
                </g>
                <g transform="matrix(1.46977,0,0,1.46977,520.899,-522.69)">
                    <path d="M120.58,521.017C117.115,518.605 113,517.394 108.231,517.394C104.162,517.394 100.683,518.158 97.787,519.681C94.895,521.211 92.515,523.261 90.636,525.837C88.764,528.414 87.382,531.353 86.489,534.66C85.603,537.968 85.153,541.402 85.153,544.964C85.153,548.845 85.603,552.513 86.489,555.98C87.382,559.447 88.764,562.466 90.636,565.046C92.515,567.617 94.91,569.671 97.833,571.197C100.756,572.724 104.256,573.484 108.323,573.484C111.313,573.484 113.967,572.996 116.288,572.013C118.61,571.025 120.614,569.654 122.295,567.91C123.98,566.162 125.297,564.08 126.255,561.662C127.208,559.25 127.777,556.64 127.969,553.843L137.031,553.843C136.139,562.427 133.182,569.097 128.162,573.857C123.14,578.621 116.275,581 107.562,581C102.285,581 97.68,580.091 93.739,578.281C89.795,576.47 86.514,573.974 83.903,570.796C81.289,567.617 79.326,563.867 78.015,559.55C76.706,555.222 76.051,550.586 76.051,545.625C76.051,540.67 76.752,536.015 78.161,531.654C79.564,527.304 81.62,523.506 84.332,520.266C87.037,517.024 90.412,514.462 94.452,512.586C98.487,510.712 103.11,509.775 108.323,509.775C111.882,509.775 115.257,510.25 118.431,511.203C121.613,512.154 124.444,513.55 126.917,515.394C129.397,517.235 131.461,519.539 133.115,522.306C134.769,525.072 135.854,528.267 136.362,531.888L127.3,531.888C126.282,527.058 124.041,523.433 120.58,521.017Z" style="fill:rgb(35,31,32);fill-rule:nonzero;"/>
                    <rect x="170.045" y="511.466" width="8.148" height="68.053" style="fill:rgb(35,31,32);"/>
                    <path d="M222.06,530.22L222.06,579.519L213.914,579.519L213.914,530.22L222.06,530.22ZM213.914,521.414L213.914,511.466L222.06,511.466L222.06,521.414L213.914,521.414Z" style="fill:rgb(35,31,32);fill-rule:nonzero;"/>
                    <path d="M264.915,530.181L264.915,538.005L265.083,538.005C268.461,532.025 273.826,529.037 281.17,529.037C284.424,529.037 287.133,529.484 289.303,530.375C291.473,531.265 293.227,532.503 294.568,534.095C295.906,535.685 296.852,537.576 297.395,539.771C297.934,541.966 298.207,544.4 298.207,547.072L298.207,579.519L290.061,579.519L290.061,546.148C290.061,543.099 289.166,540.683 287.379,538.906C285.594,537.123 283.146,536.232 280.023,536.232C277.535,536.232 275.387,536.617 273.566,537.378C271.756,538.14 270.242,539.222 269.029,540.619C267.82,542.021 266.915,543.656 266.307,545.529C265.706,547.406 265.401,549.457 265.401,551.677L265.401,579.519L257.25,579.519L257.25,530.181L264.915,530.181Z" style="fill:rgb(35,31,32);fill-rule:nonzero;"/>
                    <path d="M341.65,530.22L341.65,579.519L333.5,579.519L333.5,530.22L341.65,530.22ZM333.5,521.414L333.5,511.466L341.65,511.466L341.65,521.414L333.5,521.414Z" style="fill:rgb(35,31,32);fill-rule:nonzero;"/>
                    <path d="M406.324,538.789C404.287,537.086 401.553,536.232 398.119,536.232C395.195,536.232 392.75,536.777 390.779,537.851C388.807,538.929 387.232,540.361 386.063,542.138C384.883,543.92 384.039,545.964 383.537,548.285C383.027,550.601 382.768,553.002 382.768,555.482C382.768,557.765 383.039,559.99 383.582,562.148C384.117,564.31 384.963,566.23 386.109,567.914C387.254,569.595 388.748,570.947 390.588,571.962C392.432,572.978 394.627,573.484 397.17,573.484C401.176,573.484 404.303,572.439 406.563,570.353C408.816,568.265 410.199,565.322 410.711,561.529L419.002,561.529C418.115,567.627 415.842,572.322 412.191,575.621C408.531,578.925 403.559,580.578 397.266,580.578C393.51,580.578 390.189,579.97 387.301,578.767C384.41,577.554 381.994,575.839 380.057,573.611C378.117,571.38 376.658,568.722 375.68,565.64C374.691,562.554 374.195,559.166 374.195,555.474C374.195,551.785 374.672,548.332 375.625,545.119C376.578,541.908 378.025,539.105 379.957,536.722C381.893,534.334 384.332,532.457 387.254,531.086C390.178,529.722 393.578,529.037 397.453,529.037C400.252,529.037 402.877,529.371 405.324,530.035C407.77,530.705 409.928,531.734 411.807,533.127C413.68,534.523 415.219,536.283 416.432,538.408C417.639,540.531 418.4,543.054 418.719,545.968L410.33,545.968C409.689,542.882 408.352,540.486 406.324,538.789Z" style="fill:rgb(35,31,32);fill-rule:nonzero;"/>
                </g>
                <path d="M417.15,355.158C536.254,361.191 554.695,259.898 499.014,256.189C461.838,253.705 461.152,294.923 473.898,295.565C484.938,296.119 476.846,260.402 504.973,272.092C506.193,272.603 510.195,275.823 512.354,280.329C515.469,286.857 526.521,347.105 406.896,333.347C389.893,331.393 341.586,316.066 327.438,310.734C301.881,295.431 322.633,280.757 319.965,272.059L295.416,305.806L295.33,305.814C295.33,305.814 295.371,305.85 295.387,305.857L290.768,312.201C290.768,312.201 251.103,312.593 266.145,316.711C276.963,321.546 299.049,349.183 417.15,355.158Z" style="fill:rgb(35,31,32);fill-rule:nonzero;"/>
            </g>
        </g>
    </g>
</svg>
